<svg aria-hidden="true" style="position: absolute; width: 0; height: 0; overflow: hidden;" version="1.1" xmlns="http://www.w3.org/2000/svg" xmlns:xlink="http://www.w3.org/1999/xlink">
<defs>
<symbol id="icon-close-button" viewBox="0 0 32 32">
<path d="M32 3.223l-3.223-3.223-12.777 12.777-12.777-12.777-3.223 3.223 12.777 12.777-12.777 12.777 3.223 3.223 12.777-12.777 12.777 12.777 3.223-3.223-12.777-12.777 12.777-12.777z"></path>
</symbol>
<symbol id="icon-check-box" viewBox="0 0 24 24">
<path d="M9.477 23.41c1.046 0 1.837-0.402 2.372-1.205l11.586-17.46c0.192-0.285 0.335-0.565 0.427-0.841 0.092-0.285 0.138-0.556 0.138-0.816 0-0.72-0.251-1.314-0.753-1.782-0.494-0.477-1.105-0.715-1.833-0.715-0.502 0-0.929 0.1-1.28 0.301-0.343 0.192-0.669 0.527-0.979 1.004l-9.728 15.276-4.87-5.837c-0.527-0.611-1.188-0.916-1.983-0.916-0.745 0-1.36 0.238-1.845 0.715s-0.728 1.075-0.728 1.795c0 0.326 0.050 0.636 0.151 0.929 0.109 0.285 0.305 0.582 0.59 0.891l6.464 7.619c0.594 0.695 1.351 1.042 2.272 1.042z"></path>
</symbol>
<symbol id="icon-phone" viewBox="0 0 24 24">
<path stroke-linejoin="round" stroke-linecap="round" stroke-miterlimit="4" stroke-width="2" d="M22 16.92v3c0.001 0.279-0.056 0.554-0.168 0.809s-0.275 0.484-0.48 0.673c-0.205 0.188-0.447 0.332-0.711 0.421s-0.543 0.122-0.821 0.097c-3.077-0.334-6.033-1.386-8.63-3.070-2.416-1.535-4.465-3.584-6-6-1.69-2.609-2.742-5.579-3.070-8.67-0.025-0.277 0.008-0.555 0.096-0.818s0.231-0.505 0.418-0.71c0.187-0.205 0.415-0.369 0.669-0.481s0.529-0.17 0.806-0.171h3c0.485-0.005 0.956 0.167 1.324 0.484s0.608 0.756 0.676 1.236c0.127 0.96 0.361 1.903 0.7 2.81 0.135 0.358 0.164 0.747 0.084 1.121s-0.265 0.717-0.534 0.989l-1.27 1.27c1.424 2.503 3.496 4.576 6 6l1.27-1.27c0.272-0.269 0.615-0.454 0.989-0.534s0.763-0.051 1.121 0.084c0.907 0.339 1.85 0.573 2.81 0.7 0.486 0.069 0.929 0.313 1.246 0.687s0.486 0.852 0.474 1.342z"></path>
</symbol>
<symbol id="icon-mail" viewBox="0 0 24 24">
<path stroke-linejoin="round" stroke-linecap="round" stroke-miterlimit="4" stroke-width="2" d="M4 4h16c1.1 0 2 0.9 2 2v12c0 1.1-0.9 2-2 2h-16c-1.1 0-2-0.9-2-2v-12c0-1.1 0.9-2 2-2z"></path>
<path stroke-linejoin="round" stroke-linecap="round" stroke-miterlimit="4" stroke-width="2" d="M22 6l-10 7-10-7"></path>
</symbol>
<symbol id="icon-user" viewBox="0 0 24 24">
<path stroke-linejoin="round" stroke-linecap="round" stroke-miterlimit="4" stroke-width="2" d="M20 21v-2c0-1.061-0.421-2.078-1.172-2.828s-1.767-1.172-2.828-1.172h-8c-1.061 0-2.078 0.421-2.828 1.172s-1.172 1.767-1.172 2.828v2"></path>
<path stroke-linejoin="round" stroke-linecap="round" stroke-miterlimit="4" stroke-width="2" d="M12 11c2.209 0 4-1.791 4-4s-1.791-4-4-4c-2.209 0-4 1.791-4 4s1.791 4 4 4z"></path>
</symbol>
<symbol id="icon-burger-menu" viewBox="0 0 47 32"><path stroke-linejoin="round" stroke-linecap="round" stroke-miterlimit="4" stroke-width="4.3636" d="M1.96 29.154h42.965M1.96 15.615h42.965M1.96 2.077h42.965"></path></symbol>
</defs>
</svg>
